<svg width="16" height="16" viewBox="0 0 16 16" fill="none" xmlns="http://www.w3.org/2000/svg">
<path fill-rule="evenodd" clip-rule="evenodd" d="M13.7074 0.067816C12.878 0.263607 11.9402 0.929014 10.8933 2.06454C9.87042 3.17399 9.02505 4.35081 7.52681 6.75075C7.01982 7.56287 6.58894 8.23813 6.56929 8.25132C6.51102 8.29039 5.97343 7.89775 5.74334 7.64803C5.42429 7.30188 5.28116 6.93127 5.28265 6.45539C5.28372 6.10515 5.30184 6.0304 5.48079 5.63857C5.8827 4.75847 6.45694 4.45568 7.07772 4.79652C7.1691 4.84671 7.2712 4.92353 7.30464 4.96725C7.3753 5.05963 7.54037 5.07419 7.54037 4.98802C7.54037 4.87764 7.30734 4.49758 7.17879 4.39827C6.70566 4.03272 5.91497 4.22734 5.33831 4.85136C4.75256 5.48518 4.55167 6.45372 4.83579 7.27383C5.01367 7.78727 5.40994 8.21574 6.12126 8.66383C6.19905 8.71285 6.1547 8.79776 5.64595 9.57355C5.33733 10.0442 4.88646 10.7185 4.64399 11.072L4.20309 11.7148L3.60658 10.4655C2.81473 8.80731 2.5872 8.46662 2.27159 8.46662C1.70573 8.46662 0.341403 10.8787 0.0625011 12.3722C-0.147234 13.4953 0.184252 14.4576 0.856449 14.6771C1.35105 14.8386 2.00904 14.7447 2.63787 14.4229C3.06265 14.2055 3.31473 14.0208 3.81874 13.5577L4.21911 13.1897L4.44752 13.4441C5.66462 14.8 7.53445 15.7472 9.42673 15.9663C10.7126 16.1152 11.9241 15.7633 12.5816 15.0499C13.0241 14.5697 13.1933 14.0537 13.065 13.5749C12.9665 13.2073 12.8292 13.0219 12.6701 13.0419L12.5474 13.0573V13.5627C12.5474 14.1569 12.4778 14.3448 12.1286 14.694C11.6879 15.1348 11.0961 15.3168 10.0788 15.3245C9.34149 15.3301 8.93599 15.2546 8.17041 14.9695C7.55783 14.7414 6.39728 14.128 5.87953 13.7586C5.3731 13.3974 4.66434 12.6602 4.73248 12.5656C4.75791 12.5302 5.28027 11.8191 5.89332 10.9852C6.50636 10.1513 7.04972 9.40975 7.10082 9.33737C7.18079 9.22411 7.20976 9.2131 7.30883 9.25828C7.37213 9.28714 7.75928 9.31135 8.16915 9.31205C8.76385 9.31301 9.00376 9.29148 9.35686 9.20541C10.7643 8.86235 12.2944 8.02071 13.3758 6.9948C13.8951 6.50214 14.3391 5.93938 14.8131 5.1731C15.842 3.50938 16.2234 1.99975 15.873 0.977735C15.613 0.219587 14.6962 -0.165627 13.7074 0.067816ZM14.8339 0.546529C15.6654 0.941447 15.381 2.46224 14.0723 4.61822C13.0707 6.26839 12.2615 7.0691 10.7576 7.89815C9.68434 8.48982 8.80609 8.75187 7.98494 8.72544L7.53319 8.71088L7.83184 8.28129C8.39179 7.47579 9.01364 6.53888 9.65998 5.52687C12.4253 1.19698 13.6736 -0.00460749 14.8339 0.546529ZM2.12688 9.52159C2.20168 9.62004 2.46535 10.1172 2.71286 10.6264C2.96042 11.1357 3.27779 11.7508 3.41813 11.9934C3.60984 12.3247 3.6627 12.4554 3.63057 12.5185C3.54501 12.6864 2.85045 13.3839 2.49796 13.656C1.86633 14.1434 1.35305 14.2717 1.06986 14.0132C0.839822 13.8031 0.767674 13.4435 0.802188 12.6788C0.85482 11.514 1.22883 10.1245 1.65599 9.50688C1.8082 9.28678 1.95189 9.29123 2.12688 9.52159Z" fill="white"/>
</svg>
