<svg width="1024" height="250" viewBox="0 0 1024 250" fill="none" xmlns="http://www.w3.org/2000/svg">
<path fill-rule="evenodd" clip-rule="evenodd" d="M22.667 0.667037C22.3 1.03196 22 2.60234 22 4.15676C22 6.32039 21.53 6.98144 19.992 6.98144C18.226 6.98144 18.136 7.22672 19.242 9.00648C20.281 10.6786 20.239 11.212 19 12.0734C17.872 12.8571 17.81 13.241 18.75 13.6209C20.803 14.4524 20.183 15.8094 17 17.4506C13.646 19.1805 13.295 20.38 15.5 22.5785C17.554 24.6265 17.382 26.6675 15.092 27.3923C12.893 28.0883 11.636 30.569 13.044 31.4364C14.631 32.4145 14.134 34.2771 11.541 37.0649C9.363 39.407 9.258 39.8536 10.622 40.9833C11.826 41.9784 12.579 41.9973 14.068 41.0711C16.501 39.5555 17 39.5785 17 41.2067C17 43.1081 13.059 46.525 8.836 48.2838C5.426 49.7046 5.036 49.6717 2.599 47.7604L0 45.7224V147.495V249.268H512H1024V167.462V85.6558L1020 88.8603C1017.8 90.6231 1015.68 91.7438 1015.29 91.352C1014.17 90.2353 1016.53 87.2451 1018.53 87.2411C1020.6 87.2361 1021.87 84.7734 1019.83 84.7125C1019.1 84.6906 1019.74 84.0036 1021.25 83.185C1023.08 82.1969 1024 80.8908 1024 79.2955C1024 76.2774 1022.61 75.3461 1020.99 77.2854C1020.31 78.102 1018.77 78.77 1017.57 78.77C1015.16 78.77 1008.2 72.2522 1009.37 71.0867C1009.78 70.6829 1010.49 70.966 1010.95 71.7158C1011.42 72.4646 1012.52 72.8026 1013.4 72.4656C1014.83 71.9202 1014.77 71.4506 1012.93 68.1832C1011.28 65.2409 1011.13 64.3405 1012.18 63.6446C1013.21 62.9676 1013 62.3614 1011.25 60.8917C1008.77 58.8178 1008.31 56.2912 1010.25 55.4866C1011.12 55.1257 1010.83 54.3849 1009.31 53.0468C1007.83 51.7516 1007.3 50.4305 1007.67 48.9947C1007.98 47.8222 1007.78 46.864 1007.23 46.864C1006.25 46.864 1005.05 44.0513 1004.58 40.6323C1004.11 37.2463 1003.26 37.8864 1001.98 42.5976C1001.27 45.2188 1000.33 47.8341 999.887 48.4114C999.445 48.9887 999.342 50.4464 999.658 51.6519C1000.01 52.9979 999.776 53.8434 999.049 53.8434C998.338 53.8434 998.108 54.6052 998.473 55.7538C998.808 56.8047 998.613 57.9523 998.041 58.3053C996.446 59.2884 996.805 62.817 998.5 62.817C1001.08 62.817 1000.14 64.5679 996.961 65.6726L993.923 66.7285L996.028 68.8273C997.778 70.5722 997.918 71.1864 996.855 72.4636C995.792 73.7399 995.901 74.2374 997.494 75.399C999.369 76.7659 999.363 76.8337 997.2 78.3443C993.57 80.8788 989.01 86.1373 989.005 87.7935C989.001 88.8932 990 89.3389 992.467 89.3389C994.373 89.3389 996.253 89.658 996.644 90.0468C997.554 90.9552 992.06 96.7172 990.284 96.7172C988.741 96.7172 977 90.9601 977 90.2034C977 89.9262 978.013 89.9372 979.25 90.2273C984.95 91.5634 985.055 86.58 979.366 84.7086C976.671 83.8212 976.15 83.2808 977.003 82.2558C977.76 81.3465 977.774 80.7422 977.049 80.2955C975.354 79.2516 975.848 77.778 977.661 78.4709C978.969 78.9714 979.204 78.6594 978.769 76.9993C978.318 75.2813 978.774 74.7708 981.241 74.2304C985.024 73.4018 983.082 71.8285 978.25 71.8055C974.476 71.7886 974.25 71.0159 977 67.5301C979.581 64.2588 979.521 63.8141 976.5 63.8141C974.263 63.8141 974 63.4073 974 59.9475C974 57.728 973.361 55.5534 972.5 54.8405C971.675 54.1575 971 52.3768 971 50.8832C971 49.3896 970.213 46.6407 969.25 44.7742L967.5 41.3801L967.187 44.6206C966.98 46.7573 966.342 47.8611 965.314 47.8611C964.042 47.8611 963.984 48.1363 965 49.3567C965.921 50.4634 965.955 51.2002 965.131 52.1903C964.519 52.9261 964.272 53.7826 964.584 54.0937C964.896 54.4038 964.176 54.9671 962.984 55.344C961.398 55.8456 960.962 56.5834 961.359 58.0949C961.665 59.2625 960.773 62.5358 959.305 65.6287C957.185 70.0976 956.925 71.4426 957.887 72.9781C958.924 74.6332 958.631 75.037 955.428 76.3711C951.886 77.8468 951.839 77.9375 953.584 79.8598C955.122 81.5538 955.207 82.2977 954.188 85.1084C952.738 89.1056 952.696 90.0428 954 89.2392C954.55 88.9002 955 89.1096 955 89.7038C955 90.2981 953.762 91.3021 952.25 91.9343C949.604 93.041 949.585 93.0998 951.75 93.4747C952.988 93.6891 954 94.4598 954 95.1877C954 96.7461 947.477 102.686 945.715 102.731C944.132 102.772 939 107.283 939 108.634C939 110.131 944.056 109.922 948.874 108.227C951.143 107.43 953 107.036 953 107.353C953 107.67 953.694 107.355 954.542 106.653C955.515 105.848 956.435 105.726 957.033 106.322C958.461 107.746 955.279 111.658 951.369 113.287C948.976 114.284 947.996 115.337 947.988 116.921C947.98 118.351 946.763 119.934 944.594 121.335C941.126 123.573 939.144 123.375 941.131 120.988C941.954 119.999 941.941 119.65 941.081 119.65C940.44 119.65 938.95 118.752 937.77 117.656C936.589 116.559 936.158 115.661 936.811 115.661C938.536 115.661 938.27 111.144 936.458 109.644C935.46 108.819 935.258 108.026 935.886 107.4C936.462 106.825 936.501 105.775 935.983 104.815C935.502 103.926 934.831 101.47 934.49 99.3574C933.893 95.6543 933.148 95.077 932.576 97.8718C932.425 98.6076 932.048 99.8829 931.738 100.705C930.439 104.145 930.062 109.051 931.009 110.188C931.717 111.039 931.584 111.773 930.572 112.61C929.773 113.272 929.348 114.408 929.628 115.135C929.907 115.862 929.656 116.753 929.068 117.115C928.481 117.477 928 118.222 928 118.77C928 119.319 928.45 119.49 929 119.151C929.55 118.812 930 119.011 930 119.591C930 120.171 929.55 120.647 929 120.647C928.45 120.647 928 121.474 928 122.486C928 123.498 927.07 125.165 925.934 126.19C924.002 127.933 923.979 128.137 925.587 129.308C927.172 130.464 927.177 130.612 925.653 131.195C922.763 132.301 923.869 133.609 927.696 133.609H931.392L928.196 136.897C926.438 138.705 925 140.576 925 141.056C925 141.534 924.255 142.747 923.345 143.75C921.852 145.395 921.846 145.573 923.286 145.573C924.708 145.573 924.725 145.872 923.447 148.315C921.516 152.006 921.582 155.544 923.583 155.544C924.454 155.544 924.968 156.104 924.724 156.79C924.454 157.553 922.808 157.945 920.486 157.799C916.144 157.528 914.961 156.8 916.911 155.599C917.951 154.958 917.655 154.367 915.632 153.045C914.184 152.1 913 150.507 913 149.506C913 148.505 912.55 147.408 912 147.069C911.45 146.73 911 145.384 911 144.078C911 140.72 909.174 140.003 908.06 142.924C906.733 146.404 904.941 147.208 903.348 145.037C902.082 143.309 902 143.346 901.993 145.632C901.989 147.264 900.898 148.805 898.681 150.309C894.977 152.824 893.179 153.246 894.881 151.2C896.296 149.5 895.207 143.389 893.628 144.167C893.008 144.474 893.27 144.094 894.211 143.323C895.152 142.552 896.371 140.742 896.921 139.3C897.873 136.802 897.805 136.723 895.46 137.612C893.095 138.508 893 138.387 893 134.459C893 130.94 892.792 130.546 891.5 131.614C890.271 132.631 890 132.563 890 131.238C890 129.33 888.388 129.075 887.662 130.867C887.385 131.553 887.122 131.104 887.079 129.87C887.036 128.635 886.55 127.626 886 127.626C885.45 127.626 884.993 126.393 884.985 124.884C884.976 123.376 884.533 121.469 884 120.647C883.291 119.552 883.027 120.297 883.015 123.42C883.005 126.381 882.516 127.874 881.419 128.293C880.485 128.651 880.034 129.642 880.316 130.718C880.579 131.719 880.15 133.071 879.363 133.721C878.141 134.733 878.23 135.22 879.976 137.072C882.074 139.3 881.818 140.838 879.497 139.951C878.665 139.632 877.945 140.564 877.515 142.511C876.657 146.408 875 146.493 875 142.641C875 141.028 874.55 139.431 874 139.092C873.45 138.753 873 137.643 873 136.624C873 135.606 872.663 134.623 872.25 134.439C871.837 134.257 870.741 132.537 869.814 130.617C868.144 127.161 868.127 127.154 868.064 129.87C867.947 134.901 865 132.345 865 127.212C865 125.978 864.725 124.693 864.389 124.358C863.474 123.445 859.228 128.866 858.457 131.93C857.663 135.083 856.03 135.434 855.29 132.611C854.689 130.32 853 129.909 853 132.054C853 134.292 850.966 134.999 849.302 133.34C848.424 132.465 847.686 129.609 847.531 126.492C847.24 120.619 846.207 116.658 844.966 116.658C844.296 116.658 841.901 122.313 840.389 127.46C839.776 129.548 837.536 128.226 837.159 125.554C836.971 124.226 836.122 122.363 835.271 121.413C834.06 120.062 833.982 119.377 834.91 118.263C835.856 117.125 835.66 116.535 833.939 115.332C832.753 114.504 832.087 113.336 832.458 112.737C832.83 112.138 832.429 110.238 831.567 108.516C830.705 106.794 830 104.556 830 103.543C830 102.531 829.602 101.703 829.117 101.703C828.193 101.703 827.342 104.454 826.186 111.175C825.36 115.975 822.176 117.183 820.424 113.36C819.484 111.31 819.687 110.818 822.022 109.482C823.493 108.64 824.939 107.027 825.236 105.896C825.721 104.048 825.535 103.951 823.383 104.928C820.199 106.375 819.232 105.198 821.528 102.669C823.75 100.221 824.436 96.112 822.332 97.8538C821.309 98.6994 821 98.5518 821 97.2157C821 95.8477 820.705 95.7201 819.617 96.6205C817.868 98.0672 816.729 95.6483 817.575 92.2862C817.952 90.7916 817.642 89.8145 816.674 89.4436C815.863 89.1335 814.853 86.941 814.43 84.573L813.661 80.2656L812.865 83.7554C812.427 85.6747 812.264 87.8064 812.503 88.4914C812.742 89.1774 812.207 89.7377 811.314 89.7377C809.897 89.7377 809.929 90.001 811.567 91.8056C812.967 93.3471 813.07 93.7918 811.972 93.5505C811.162 93.373 810.162 92.7788 809.75 92.2304C809.318 91.6561 808.739 92.1835 808.383 93.4767C808.044 94.7101 807.383 95.7201 806.915 95.7201C806.446 95.7201 806.322 96.3931 806.638 97.2157C806.955 98.0383 806.949 99.4003 806.625 100.242C806.102 101.602 805.671 101.584 802.768 100.087C799.773 98.5438 799.614 98.5408 800.872 100.052C802.036 101.451 802.036 101.702 800.872 101.699C798.442 101.693 792.993 97.794 791.817 95.2196C790.475 92.2822 791.328 90.9312 793.428 92.6691C794.24 93.3411 795.826 93.5994 796.952 93.2424C798.994 92.5963 799.673 91.1994 798.25 90.5683C797.224 90.1136 794 84.217 794 82.7952C794 82.1621 794.493 81.9477 795.096 82.3186C795.776 82.7384 796.06 82.2867 795.843 81.1311C795.651 80.1071 794.102 78.5736 792.4 77.7251C789.705 76.3801 789.421 75.8666 790.191 73.7369C790.678 72.3918 791.846 70.7058 792.788 69.9879C794.336 68.8094 794.348 68.598 792.91 67.7844C789.322 65.7544 786.503 62.6874 787.75 62.1709C788.437 61.8868 789 60.9914 789 60.1828C789 59.3732 788.581 58.9694 788.069 59.2844C786.608 60.1848 785.703 57.8945 786.935 56.4139C787.791 55.3859 787.545 54.9542 785.857 54.5145C784.127 54.0628 783.911 53.657 784.82 52.5642C785.688 51.5213 785.667 50.5362 784.734 48.5331C783.223 45.2876 782.057 45.1181 781.829 48.1103C781.735 49.3437 781.594 51.2511 781.516 52.3479C781.438 53.4446 780.805 54.2183 780.109 54.0668C779.279 53.8863 778.937 54.7438 779.116 56.5594C779.265 58.082 778.907 60.2247 778.319 61.3214C777.706 62.4661 777.594 64.165 778.055 65.3097C779.251 68.2749 779.157 68.7994 777.433 68.7994C776.36 68.7994 776.051 69.3847 776.455 70.6529C776.796 71.7228 776.402 73.0389 775.523 73.7658C773.743 75.2384 773.451 77.2316 775.17 76.1727C775.961 75.6851 776.123 75.9882 775.67 77.1109C773.718 81.9457 773.662 82.3006 775.053 81.0134C776.654 79.5318 779.386 79.3344 778.5 80.7642C778.16 81.3126 778.449 81.7612 779.141 81.7612C781.861 81.7612 778.31 83.6158 774 84.4463C768.824 85.4444 767.477 88.3857 772.354 88.0397C774.735 87.8722 775.124 88.1604 774.698 89.7836C774.021 92.366 775.603 93.2404 776.908 91.005C777.475 90.0339 777.953 89.7677 777.97 90.4128C777.986 91.0589 776.818 92.5146 775.373 93.6482C773.248 95.3143 772.975 95.9843 773.945 97.1499C774.605 97.9426 776.054 98.7303 777.165 98.9008C778.77 99.147 778.115 99.9247 773.963 102.7C771.091 104.619 768.012 107.535 767.121 109.18C766.229 110.826 765.118 112.45 764.652 112.79C762.895 114.069 764.51 117.084 767.007 117.186C773.8 117.462 774.147 117.599 773.82 119.856C773.508 122.001 766.71 127.526 764.302 127.593C762.453 127.644 757.737 122.875 758.468 121.695C758.826 121.118 758.698 120.647 758.184 120.647C757.67 120.647 756.967 119.237 756.622 117.514C755.952 114.178 753.551 111.757 750.861 111.705C749.959 111.687 748.183 110.835 746.913 109.809L744.604 107.945L746.802 107.249C748.011 106.866 749 106.061 749 105.457C749 104.854 748.716 104.645 748.369 104.991C747.549 105.808 744 103.918 744 102.665C744 102.135 745.35 101.703 747 101.703C749.94 101.703 750.972 100.425 749.01 99.2158C747.353 98.1948 750.184 96.0322 752.58 96.4889C753.782 96.7172 755.07 96.4131 755.443 95.8119C756.254 94.5037 752.028 92.7289 748.102 92.7289C746.579 92.7289 745.081 92.4777 744.773 92.1706C744.041 91.4407 746.627 86.3029 748.51 84.7444C750.662 82.9627 749.375 81.7612 745.314 81.7612H741.746L742.224 76.7939C742.753 71.307 742.349 70.2611 740.342 71.9212C739.284 72.7966 738.992 72.5304 738.965 70.6659C738.945 69.3657 738.348 67.2569 737.638 65.9807C736.438 63.8231 736.26 64.1501 735.09 70.6779C734.399 74.5365 734.169 78.2366 734.58 78.8997C735.102 79.7402 734.799 79.9037 733.582 79.4381C732.622 79.0702 731.212 78.77 730.45 78.77C729.661 78.77 729.298 78.1578 729.609 77.3512C730.474 75.1038 726.486 73.4427 724.641 75.2823C722.1 77.8158 720.144 77.0621 719.432 73.2752C718.698 69.3757 717 67.567 717 70.6848C717 71.7866 716.212 73.1516 715.25 73.7169C713.87 74.5275 713.777 74.9274 714.808 75.6064C716.642 76.8128 715.214 81.8918 712.87 82.503C711.854 82.7683 711.296 83.4253 711.629 83.9637C711.963 84.5022 711.66 86.0147 710.957 87.3258C709.807 89.4665 709.955 89.9661 712.406 92.2314C714.154 93.8456 715.021 95.5546 714.818 96.9814C714.532 98.9865 714.025 99.1769 709.75 98.8778C707.124 98.6954 705 98.9785 705 99.513C705 100.522 710.996 103.697 712.901 103.697C714.373 103.697 714.303 106.984 712.8 108.483C711.226 110.052 707.289 110.02 706.718 108.433C706.472 107.748 706.675 106.402 707.17 105.441C707.746 104.326 707.697 103.697 707.035 103.697C706.466 103.697 705.686 103.585 705.301 103.447C704.917 103.31 704.58 104.768 704.551 106.688C704.513 109.3 704.101 110.114 702.913 109.922C702.017 109.778 700.737 110.863 699.972 112.415C698.628 115.141 698.614 115.144 698.228 112.838C698.014 111.558 698.551 109.727 699.422 108.768C701.301 106.698 700.576 105.691 697.208 105.691C695.026 105.691 694.815 105.365 695.334 102.781C695.744 100.737 695.334 99.1341 693.959 97.3892C692.881 96.0242 691.955 94.3053 691.9 93.5685C691.711 91.026 690.199 97.2277 690.1 100.955C690.027 103.67 689.564 104.694 688.406 104.694C687.53 104.694 686.577 103.796 686.29 102.7C686.002 101.603 685.369 100.705 684.883 100.705C684.398 100.705 684 99.3325 684 97.6554C684 95.7131 683.605 94.8487 682.913 95.2754C682.315 95.6434 682.031 96.7282 682.282 97.6853C682.778 99.5758 681.403 102.7 680.075 102.7C679.621 102.7 678.934 101.241 678.547 99.4591L677.844 96.2187L676.767 98.7113C676.174 100.082 675.787 101.798 675.906 102.524C676.024 103.25 675.685 104.372 675.15 105.017C673.566 106.929 672.689 113.358 673.91 114.11C674.51 114.48 675 115.625 675 116.654C675 118.037 674.151 118.608 671.75 118.839C668.783 119.124 668.473 119.476 668.19 122.89C667.987 125.336 667.381 126.629 666.44 126.629C665.648 126.629 665 127.302 665 128.125C665 128.947 665.45 129.62 666 129.62C666.55 129.62 667 130.069 667 130.617C667 132.476 664.481 131.627 663.3 129.371C659.45 122.018 657.675 117.431 656.451 111.673C654.165 100.922 653.803 99.7084 652.883 99.7084C652.398 99.7084 652 100.537 652 101.549C652 102.562 651.295 104.799 650.433 106.522C649.571 108.244 649.166 110.138 649.533 110.73C649.9 111.321 649.386 112.4 648.39 113.126C646.868 114.235 646.763 114.849 647.73 116.964C648.637 118.949 648.601 119.589 647.562 119.987C645.832 120.649 644.013 118.782 644.685 117.035C644.976 116.28 644.716 115.661 644.107 115.661C642.498 115.661 642.751 110.389 644.468 108.125C646.653 105.245 646.426 100.63 644.069 100.015C642.894 99.7084 642.354 98.9506 642.69 98.0772C642.994 97.2885 642.458 95.778 641.498 94.7211C640.407 93.5186 639.937 91.8425 640.243 90.2472C640.512 88.8444 640.342 87.4555 639.866 87.1623C639.39 86.8692 639 87.5203 639 88.6091C639 89.6989 637.782 91.5454 636.294 92.712C633.974 94.5316 633.76 95.1079 634.794 96.7591C636.333 99.2168 636.311 99.7084 634.658 99.7084C633.92 99.7084 632.755 97.8399 632.069 95.5566C631.146 92.4856 630.588 91.7718 629.926 92.8147C629.434 93.5904 629.024 95.2346 629.015 96.4679C628.999 98.8978 626.837 99.4751 625.278 97.465C622.831 94.3123 623.121 92.7409 626.791 89.2562L630.5 85.7355L627.095 86.3966C623.545 87.0856 623.458 86.5422 626.511 82.7583C628.043 80.8599 629.068 76.7759 628.013 76.7759C627.574 76.7759 626.955 77.4489 626.638 78.2715C626.322 79.0941 625.544 79.7671 624.909 79.7671C624.078 79.7671 624.103 79.3493 625 78.2715C626.037 77.0262 625.908 76.7759 624.229 76.7759C621.682 76.7759 620.661 74.3092 622.559 72.7388C624.613 71.0388 624.341 69.5542 622.105 70.2621C620.908 70.641 620.23 70.3907 620.263 69.5811C620.292 68.8772 620.244 67.0117 620.158 65.4373C620.024 63.0104 619.771 62.7622 618.5 63.8141C617.675 64.4971 617 66.1223 617 67.4254C617 68.7296 616.46 69.7965 615.8 69.7965C614.867 69.7965 614.867 70.0627 615.8 70.9929C617.494 72.682 617.289 76.3452 615.394 78.2346C614.069 79.5557 613.511 79.6126 612.202 78.5557C610.869 77.4788 610.75 77.5137 611.457 78.77C611.919 79.5926 613.207 81.2737 614.319 82.505C615.431 83.7364 616.041 85.0436 615.675 85.4085C614.573 86.5082 609.836 83.8451 609.308 81.829C609.037 80.7961 607.99 79.7362 606.982 79.474C604.335 78.783 605.587 81.6077 609.416 84.9608C611.803 87.0517 612.104 87.6718 610.75 87.7027C609.788 87.7257 609 88.4166 609 89.2392C609 90.0618 609.562 90.6221 610.25 90.4855C611.057 90.325 611.609 91.7369 611.807 94.4738C612.153 99.2328 611.586 99.6077 608.465 96.6843L606.302 94.6582L603.901 96.6843L601.5 98.7113L603.826 100.678C606.796 103.188 606.06 105.779 601.363 109.352C598.455 111.563 598.128 112.164 599.431 112.891C601.241 113.901 601.501 116.232 599.913 117.211C599.315 117.579 598.325 117.381 597.713 116.771C595.947 115.01 595 115.468 595 118.081C595 119.489 596.068 121.34 597.554 122.505C600.035 124.452 600.051 124.537 598.119 125.568C597.026 126.152 595.427 126.629 594.566 126.629C593.705 126.629 593 127.078 593 127.626C593 128.175 592.325 128.623 591.5 128.623C589.143 128.623 589.748 130.435 592.25 130.869C594.379 131.238 594.345 131.323 591.618 132.459C588.913 133.586 588.837 133.77 590.375 135.465C591.911 137.157 591.841 137.354 589.257 138.605C587.741 139.339 586.163 139.86 585.75 139.765C585.337 139.67 585 140.04 585 140.588C585 141.136 585.645 141.585 586.433 141.585C588.039 141.585 589.466 145.012 588.506 146.561C587.336 148.448 583.372 147.63 582.087 145.237C581.058 143.32 581.117 142.239 582.418 139.133C584.331 134.571 584.333 134.541 582.685 135.171C581.831 135.498 580.999 134.35 580.312 131.9C579.392 128.623 579.236 128.476 579.126 130.784C579.057 132.246 578.481 133.615 577.847 133.826C577.058 134.088 577.251 135.058 578.457 136.892C580.49 139.987 579.907 142.582 577.179 142.582C574.276 142.582 568.457 138.204 568.795 136.275C568.981 135.217 567.724 133.788 565.411 132.427C562.103 130.481 561.933 130.188 563.726 129.527C565.813 128.757 567.291 126.255 566.264 125.231C565.936 124.903 564.868 124.635 563.892 124.635C562.916 124.635 561.797 124.117 561.405 123.483C560.962 122.77 561.13 122.603 561.845 123.045C563.504 124.067 563.281 122.702 561.044 118.154C559.965 115.961 558.781 112.82 558.413 111.175C557.748 108.2 557.73 108.215 555.284 113.662C553.931 116.676 552.481 119.368 552.062 119.645C550.632 120.589 549 124.498 549 126.98C549 128.343 548.68 130.279 548.289 131.283C547.719 132.749 547.374 132.386 546.539 129.443C545.382 125.358 543.762 124.47 543 127.503C542.288 130.333 538.309 134.606 536.384 134.606C535.038 134.606 534.975 134.341 536.02 133.086C536.716 132.251 537.108 131.465 536.893 131.341C536.677 131.218 535.182 130.443 533.571 129.62C529.66 127.623 528.269 122.84 531.038 120.907C533.314 119.318 533.677 115.661 531.559 115.661C530.766 115.661 529.804 116.168 529.421 116.786C528.952 117.542 528.394 117.326 527.722 116.127C526.975 114.796 527.128 114.045 528.325 113.173C529.403 112.387 529.6 111.673 528.923 110.998C528.246 110.323 528.422 109.574 529.458 108.717C530.306 108.015 531 106.969 531 106.392C531 105.815 529.812 106.431 528.359 107.761L525.718 110.178L526.378 107.436C526.878 105.359 526.67 104.694 525.519 104.694C524.433 104.694 523.996 103.628 523.985 100.955C523.96 94.9903 522.37 93.7759 521.567 99.1091C521.02 102.747 520.476 103.697 518.939 103.697C516.744 103.697 516.384 105.675 518.242 107.527C519.23 108.512 519.18 108.961 517.992 109.728C516.735 110.538 516.895 111.001 519 112.655C520.721 114.008 521.024 114.626 519.973 114.642C518.049 114.67 514 111.894 514 110.548C514 109.992 513.31 108.848 512.466 108.007C511.504 107.048 511.178 105.681 511.59 104.34C512.489 101.419 512.973 101.042 513.9 102.539C514.483 103.478 515.129 103.15 516.346 101.299C518.748 97.6435 518.533 94.735 515.898 95.2415C514.742 95.4629 513.238 96.107 512.556 96.6713C511.874 97.2357 511.02 97.4022 510.658 97.0412C509.415 95.8019 510.001 91.6691 511.5 91.0957C513.802 90.2143 513.3 88.9471 509.972 87.2301C507.132 85.7664 507.037 85.5361 508.44 83.538C509.802 81.5997 509.759 81.2826 507.969 80.0323C505.731 78.4689 505.409 75.7699 507.242 73.9423C508.131 73.0559 508.17 72.5045 507.376 71.998C506.768 71.6101 505.954 70.282 505.567 69.0487C505.181 67.8153 504.46 66.8053 503.964 66.8053C503.468 66.8053 503.328 67.4952 503.653 68.3378C503.977 69.1813 503.483 70.7078 502.555 71.7298C501.627 72.7528 500.991 74.1945 501.143 74.9333C501.295 75.6722 500.781 77.2645 500.001 78.4699C498.942 80.1071 498.255 80.3923 497.291 79.5946C495.095 77.777 495.75 81.176 498.193 84.2728L500.387 87.0526L497.693 86.5392C494.146 85.8632 494.282 87.1543 498.052 89.9332C500.317 91.6032 500.964 92.7379 500.561 94.3362C500.164 95.9136 500.552 96.6285 502.01 97.0083C505.372 97.8857 504.223 99.4152 499.75 100.019C493.787 100.824 491.085 98.9357 491.521 94.2644C491.702 92.3231 491.433 90.7348 490.925 90.7348C490.416 90.7348 489.968 89.5014 489.93 87.9929C489.891 86.4843 489.487 84.3536 489.032 83.2568C488.287 81.4621 488.056 81.6107 486.716 84.7524C485.898 86.6718 484.921 89.6749 484.547 91.4258C484.126 93.395 483.388 94.4259 482.611 94.1288C481.287 93.6223 478.502 98.3334 478.871 100.456C478.99 101.142 478.381 101.703 477.518 101.703C476.157 101.703 476.122 102.067 477.25 104.444C479.218 108.593 478.355 113.549 475.433 114.877C472.574 116.175 472.393 117.327 474.655 119.82C476.195 121.517 476.195 121.644 474.655 121.644C472.731 121.644 472.472 123.71 474.183 125.416C476.313 127.539 474.369 127.704 471.717 125.624C470.293 124.507 468.987 122.373 468.814 120.879C468.569 118.76 467.859 118.053 465.582 117.661C462.292 117.092 461.019 114.977 463.417 114.06C465.35 113.32 465.404 111.97 463.635 108.589C462.89 107.167 461.953 104.256 461.551 102.121C460.903 98.6754 460.677 98.4331 459.55 99.9706C457.852 102.286 455.966 102.172 456.262 99.7712C456.393 98.7083 456.05 97.806 455.5 97.7641C454.95 97.7222 454.452 98.5368 454.392 99.5738C454.333 100.611 453.546 102.51 452.642 103.796C450.621 106.674 450.569 107.685 452.441 107.685C454.332 107.685 455.155 109.112 454.399 111.078C453.977 112.174 453.059 112.473 451.396 112.056C449.947 111.694 449 111.893 449 112.563C449 113.17 449.563 113.681 450.25 113.699C451.019 113.718 450.834 114.235 449.767 115.042C448.169 116.253 448.239 116.447 450.67 117.551C453.418 118.799 452.952 120.191 449.583 120.799C447.221 121.225 446.23 123.638 448.417 123.638C450.41 123.638 450.445 125.046 448.5 126.985C447.675 127.808 447 129.384 447 130.488C447 131.59 446.55 132.771 446 133.11C444.565 133.994 444.764 137.591 446.25 137.627C446.938 137.644 446.703 138.12 445.73 138.685C444.756 139.25 443.092 139.438 442.031 139.102C439.728 138.374 438.297 134.657 439.932 133.65C440.679 133.19 439.718 131.629 437.166 129.16C433.026 125.153 432.626 122.235 436.092 121.331C439.303 120.493 438.373 117.818 434.75 117.469C432.93 117.295 431.5 116.593 431.5 115.875C431.5 115.169 430.878 114.209 430.118 113.74C429.037 113.074 429.201 112.741 430.868 112.214C433.503 111.379 433.662 108.109 431.132 106.759C429.777 106.035 429.405 105.027 429.777 103.085C430.131 101.236 429.937 100.627 429.146 101.113C428.394 101.577 428.088 101.03 428.251 99.5169C428.506 97.1599 428.165 97.0502 423.025 97.8349C419.272 98.4082 419.261 95.2834 423.003 91.8764C425.681 89.4366 425.898 88.9152 424.461 88.3648C423.431 87.9709 422.96 87.0078 423.252 85.8931C423.542 84.7873 422.97 83.5938 421.8 82.865C420.656 82.1531 419.977 80.7691 420.133 79.469C420.278 78.2615 419.748 76.2634 418.956 75.0271L417.514 72.7807L415.811 75.0271C414.448 76.8258 413.858 77.0262 412.854 76.0281C411.045 74.2304 410 74.4926 410 76.745C410 78.0801 409.52 78.5238 408.5 78.1339C407.459 77.7351 407 78.2027 407 79.6604C407 80.816 406.523 81.7612 405.941 81.7612C405.359 81.7612 405.16 82.2099 405.5 82.7583C405.84 83.3067 406.965 83.7554 408 83.7554C411.401 83.7554 411.519 86.1732 408.381 91.5514C408.278 91.7269 407.271 91.2952 406.143 90.5922C405.014 89.8893 403.737 89.6679 403.304 90.0997C402.871 90.5314 403.31 91.3271 404.279 91.8675C406.49 93.1008 405.59 94.7211 402.691 94.729C400.734 94.735 400.806 94.8946 403.364 96.2246C404.94 97.0442 406.852 97.7143 407.614 97.7143C408.376 97.7143 409 97.9705 409 98.2836C409 99.5877 406.001 101.703 404.153 101.703C401.106 101.703 399 102.764 399 104.302C399 105.066 399.45 105.747 400 105.815C400.55 105.884 401.563 105.996 402.25 106.065C403.394 106.178 403.57 106.885 403.15 109.679C403.067 110.227 402.325 110.676 401.5 110.676C400.675 110.676 400 111.401 400 112.287C400 113.173 399.213 116.106 398.252 118.805C396.716 123.116 396.685 123.824 397.994 124.631C399.196 125.372 399.239 125.793 398.217 126.812C397.208 127.818 396.547 127.824 394.975 126.844C393.173 125.723 393 125.877 393 128.615C393 130.264 393.468 131.614 394.039 131.614C394.61 131.614 394.203 132.551 393.134 133.694C391.459 135.487 390.872 135.605 388.882 134.543L386.574 133.311L388.787 132.495C391.687 131.425 391.579 130.787 388.284 129.539C386.244 128.765 385.907 128.299 386.931 127.669C387.857 127.098 388.113 125.716 387.729 123.357C387.395 121.303 387.641 119.402 388.332 118.703C389.225 117.8 389.087 117.217 387.75 116.232C386.787 115.523 386 114.432 386 113.807C386 113.182 385.175 112.67 384.167 112.67C382.778 112.67 382.333 113.43 382.333 115.803C382.333 117.724 381.602 119.468 380.442 120.314C378.855 121.47 378.748 122.009 379.775 123.649C381.414 126.266 381.358 126.44 378.75 126.809C376.854 127.078 376.551 127.647 376.822 130.43C377.029 132.55 376.223 135.489 374.572 138.638C371.519 144.46 371.503 144.572 373.75 144.591C375.246 144.604 375.282 144.748 374 145.573C370.633 147.743 369.21 146.732 368.512 141.674C367.983 137.839 368.223 136.19 369.619 134.065C371.385 131.379 371.381 131.359 369.201 132.049C367.219 132.676 367 132.398 367 129.247C367 127.324 366.557 125.477 366.015 125.142C365.404 124.767 365.262 125.691 365.64 127.576C366.127 130.002 365.91 130.617 364.568 130.617C363.03 130.617 363.02 130.807 364.443 132.834C366.452 135.693 366.424 138.258 364.372 139.403C363.258 140.025 363.1 140.532 363.872 141.008C364.492 141.39 365 142.894 365 144.35C365 146.782 364.869 146.868 363.393 145.395C361.917 143.923 361.648 143.93 360.094 145.48C358.328 147.24 357.938 151.161 359.316 153.301C359.883 154.182 359.364 154.547 357.54 154.547C355.289 154.547 355.042 154.23 355.589 152.054C356.112 149.977 355.86 149.562 354.077 149.562C351.424 149.562 350.488 147.393 351.958 144.654C352.86 142.974 352.78 142.582 351.535 142.582C350.473 142.582 349.995 141.584 349.985 139.342C349.974 137.107 349.698 136.528 349.096 137.475C348.156 138.957 346 138.187 346 136.37C346 135.76 346.726 134.462 347.612 133.485C349.113 131.831 349.053 131.665 346.743 131.088C344.642 130.562 344.172 129.724 343.686 125.633C343.371 122.974 342.692 119.98 342.179 118.978C340.706 116.104 339.187 110.59 338.451 105.441C337.821 101.041 337.568 100.705 334.886 100.705C332.321 100.705 332 101.051 332 103.818C332 106.473 331.779 106.749 330.5 105.691C329.25 104.657 329 104.788 329 106.482C329 107.601 328.437 108.778 327.75 109.098C326.75 109.562 326.75 109.796 327.75 110.26C329.709 111.173 329.218 114.803 326.786 117.384C324.926 119.359 324.766 120.043 325.786 121.673C327.699 124.727 327.269 126.629 324.667 126.629C321.604 126.629 320.736 127.603 322.215 129.38C322.873 130.171 323.522 131.334 323.656 131.964C323.79 132.595 324.191 134.085 324.547 135.278C325.062 137.005 324.576 137.764 322.161 139.01C319.405 140.43 318.984 140.429 317.555 139.005C315.991 137.445 316.353 135.086 318 136.101C321.045 137.978 318.488 130.86 314.955 127.626C311.799 124.738 307 111.716 307 106.042C307 104.644 306.222 101.865 305.271 99.8669L303.542 96.2346L302.578 98.9686C302.048 100.472 301.22 101.703 300.74 101.703C300.259 101.703 300.169 102.656 300.54 103.821C300.994 105.247 300.852 105.718 300.107 105.258C298.674 104.376 298.67 105.96 300.101 107.387C300.902 108.185 300.604 108.673 299.009 109.177C296.857 109.858 296.77 110.749 298.459 114.824C298.942 115.99 298.509 116.679 296.988 117.161C295.322 117.687 294.965 118.376 295.419 120.181C295.743 121.466 295.556 122.797 295.004 123.137C293.456 124.091 293.817 126.629 295.5 126.629C297.578 126.629 297.374 128.25 295 130.617C292.44 133.17 291.055 133.127 286.992 130.368C283.478 127.982 282.588 126.789 281.001 122.332C279.934 119.336 278 119.534 278 122.641C278 123.673 277.532 124.805 276.959 125.158C274.361 126.76 271.292 133.238 271.728 136.201C272.021 138.193 271.612 139.835 270.561 140.883C268.695 142.744 265.862 142.106 266.67 140.007C266.973 139.221 266.612 138.58 265.857 138.562C264.966 138.541 265.166 138.029 266.441 137.066C268.76 135.318 269.377 132.611 267.457 132.611C266.656 132.611 265.831 131.063 265.463 128.872C264.498 123.119 264.165 122.76 264.079 127.377C264.008 131.204 263.759 131.614 261.516 131.614C259.039 131.614 259.037 131.623 260.658 135.013C262.282 138.409 261.979 141.585 260.031 141.585C259.464 141.585 259 140.688 259 139.591C259 138.494 258.55 137.597 258 137.597C257.45 137.597 257 138.494 257 139.591C257 140.688 256.495 141.585 255.878 141.585C255.102 141.585 255.14 142.048 256 143.081C257.016 144.302 256.958 144.576 255.681 144.576C253.542 144.576 252.597 146.38 253.91 147.958C255.332 149.667 251.762 153.057 249.466 152.179C248.046 151.635 248.107 151.215 249.997 148.568C251.652 146.252 251.805 145.573 250.676 145.573C249.74 145.573 248.861 143.874 248.226 140.837L247.236 136.101L247.118 140.402C247.022 143.906 246.676 144.648 245.25 144.415C244.287 144.256 242.908 144.497 242.183 144.95C239.835 146.418 239.599 144.631 241.829 142.265C244.137 139.816 245.07 135.134 242.8 137.397C241.065 139.127 239.524 138.871 241 137.098C242.029 135.862 241.921 135.582 240.372 135.485C239.343 135.419 238.162 135.419 237.75 135.485C236.413 135.695 236.957 132.892 238.5 131.614C240.584 129.89 240.372 128.623 238 128.623C236.296 128.623 236 127.958 236 124.136C236 118.69 234.488 118.235 233.522 123.389C233.136 125.446 232.356 127.689 231.788 128.374C231.072 129.237 231.103 130.038 231.886 130.979C232.804 132.082 232.524 132.245 230.398 131.839C228.092 131.4 227.859 131.595 228.456 133.471C228.86 134.739 228.703 135.603 228.067 135.603C227.48 135.603 227 136.949 227 138.594C227 142.156 226.385 142.294 223.314 139.417C221.449 137.671 221 137.556 221 138.83C221 139.7 222.385 141.573 224.078 142.993C227.342 145.731 226.994 146.241 221.5 146.777C219.279 146.993 218.49 147.587 218.463 149.064C218.409 151.957 217.158 153.55 214.941 153.55C213.463 153.55 213 152.856 213 150.64C213 147.136 212.111 144.576 210.893 144.576C210.402 144.576 210 145.474 210 146.57C210 149.416 208.888 149.05 205.795 145.184C203.563 142.395 203.195 141.158 203.692 138.105C204.116 135.498 203.882 134.146 202.897 133.524C201.782 132.82 201.859 132.639 203.276 132.626C204.888 132.612 204.921 132.358 203.641 129.87C202.544 127.737 199 113.329 199 111.002C199 110.75 197.765 110.686 196.255 110.86C194.12 111.105 193.368 111.84 192.873 114.166C192.523 115.811 192.183 116.72 192.118 116.187C192.053 115.654 191.299 116.216 190.442 117.435C189.585 118.656 189.22 120.194 189.629 120.855C191.009 123.082 190.859 126.47 189.355 127.045C188.368 127.423 188.083 128.31 188.514 129.663C188.872 130.789 188.623 132.361 187.96 133.158C186.971 134.346 187.135 134.606 188.878 134.606C190.075 134.606 191 135.242 191 136.066C191 137.818 187.962 139.591 184.959 139.591C183.388 139.591 182.954 140.029 183.393 141.168C183.727 142.036 184 142.933 184 143.162C184 143.392 184.675 143.579 185.5 143.579C187.538 143.579 187.379 145.44 185.011 149.312C182.839 152.864 181.95 153.149 178.684 151.347C176.548 150.17 176.567 150.131 179.5 149.593C183.68 148.827 183.575 145.62 179.322 144.166C175.03 142.7 174.118 141.585 177.211 141.585C178.61 141.585 180.344 140.878 181.063 140.014C182.38 138.431 181.805 137.581 178.5 136.221C177.95 135.995 178.512 135.064 179.75 134.154C182.709 131.976 182.601 130.617 179.469 130.617C176.979 130.617 176.104 129.568 175.582 125.959C175.438 124.957 174.347 123.993 173.159 123.817C170.456 123.419 170.386 122.042 173 120.647C174.1 120.059 175 118.88 175 118.025C175 117.171 174.1 116.237 173 115.951C170.571 115.316 170.524 114.848 172.655 112.5C174.159 110.843 174.163 110.676 172.7 110.676C171.618 110.676 170.885 109.45 170.463 106.937C170.118 104.881 169.483 102.076 169.051 100.705C168.348 98.472 168.072 98.835 166.398 104.195C165.371 107.485 164.63 110.962 164.753 111.922C165.067 114.379 164.099 114.092 163.071 111.424L162.206 109.18L161.165 111.826C160.592 113.28 159.665 114.753 159.105 115.098C158.545 115.443 158.341 116.384 158.651 117.189C159.007 118.114 158.602 118.653 157.55 118.653C156.031 118.653 156.022 118.845 157.443 120.869C160.115 124.672 158.817 131.614 155.433 131.614C153.089 131.614 152.576 134.48 154.534 136.637C156.142 138.409 156.154 138.594 154.655 138.594C152.468 138.594 152.532 141.224 154.75 142.465C156.641 143.524 156.25 143.792 151.171 144.913C149.29 145.329 148.975 145.106 149.532 143.756C150.659 141.026 150.578 139.142 149.333 139.116C147.348 139.075 146.66 137.711 147.883 136.242C148.794 135.147 148.715 134.71 147.526 134.255C146.61 133.905 145.973 132.363 145.932 130.399C145.868 127.286 145.811 127.238 144.761 129.411C143.276 132.486 140.918 131.818 139.589 127.947C138.99 126.204 138.138 124.423 137.696 123.988C136.484 122.797 135.033 125.713 135.015 129.371C135.003 131.941 134.587 132.611 133 132.611C130.792 132.611 130.28 134.174 132.25 134.902C133.189 135.249 133.108 135.775 131.924 137.02C130.475 138.541 130.211 138.114 128.674 131.762C127.753 127.959 127 124.127 127 123.246C127 122.13 126.089 121.644 124 121.644C121.467 121.644 121 122.032 121 124.136C121 125.507 120.55 126.629 120 126.629C119.45 126.629 119 126.214 119 125.709C119 125.202 117.394 122.69 115.431 120.125L111.861 115.463L115.828 116.131C120.428 116.906 122.076 115.473 118.469 113.835C115.741 112.595 115.152 110.676 117.5 110.676C119.586 110.676 119.372 109.327 116.938 107.131C115.796 106.1 115.081 104.491 115.335 103.523C115.587 102.562 115.16 101.252 114.386 100.611C113.189 99.6206 113.243 99.2428 114.739 98.0981C116.388 96.8358 116.357 96.7102 114.25 96.119C111.832 95.44 111.349 94.2455 113.065 93.1876C113.767 92.7549 113.569 91.9123 112.485 90.7189C111.176 89.2771 111.071 88.4785 111.967 86.8094C112.586 85.6548 112.824 84.2788 112.497 83.7504C112.169 83.2219 111.061 79.0811 110.035 74.5485C108.407 67.3586 108.158 66.8471 108.084 70.5443C108.038 72.8754 107.602 74.7818 107.117 74.7818C105.663 74.7818 104.97 79.129 106.288 79.9805C107.12 80.5189 106.795 80.9566 105.25 81.3794C102.552 82.1162 102.37 83.3037 104.75 84.6358C106.417 85.569 106.417 85.6478 104.75 86.2879C103.788 86.6578 103 87.5851 103 88.3488C103 89.1126 102.46 89.7377 101.8 89.7377C100.913 89.7377 100.893 90.0299 101.722 90.8564C102.339 91.4716 102.606 92.5933 102.315 93.3491C101.962 94.2664 102.569 94.749 104.143 94.8018C106.355 94.8756 106.327 94.9434 103.683 95.9036C101.9 96.5517 101.063 97.4381 101.402 98.3185C101.755 99.2338 101.224 99.7084 99.846 99.7084C98.086 99.7084 97.955 99.9487 99.02 101.228C99.716 102.063 100.038 102.995 99.735 103.296C98.964 104.065 93 100.865 93 99.6825C93 99.148 92.325 98.7113 91.5 98.7113C89.802 98.7113 89.489 97.1499 91 96.2187C92.904 95.0451 91.976 93.9035 86.717 90.9432C80.201 87.277 78.218 85.1333 79.842 83.5141C80.719 82.6396 81.291 82.6496 82.2 83.5559C82.86 84.214 84.426 84.7524 85.68 84.7524C86.934 84.7524 89.714 85.4524 91.858 86.3078C94.637 87.4166 96.707 87.618 99.061 87.0098C103.559 85.8472 103.718 84.4144 99.515 82.8989C97.582 82.2019 96 81.2019 96 80.6754C96 80.149 94.925 79.3104 93.611 78.8119C86.995 76.3043 81.118 67.8023 86 67.8023C87.111 67.8023 88 67.1373 88 66.3067C88 65.3855 87.062 64.8111 85.559 64.8111C84.216 64.8111 82.84 64.3625 82.5 63.8141C82.16 63.2657 82.621 62.817 83.524 62.817C84.448 62.817 84.94 62.2716 84.648 61.5707C84.363 60.8857 83.562 58.5835 82.867 56.4548C81.683 52.8234 81.752 52.4665 83.999 50.6528C85.977 49.0555 86.142 48.561 84.947 47.8072C84.151 47.3047 82.825 46.8809 82 46.864C78.856 46.8002 77.824 45.3485 79.036 42.6953C79.977 40.6363 79.813 39.5286 78.088 36.32C76.939 34.1833 75.984 31.9808 75.964 31.4245C75.944 30.8681 74.821 29.0664 73.469 27.4213C71.564 25.1041 71.009 24.8299 71.005 26.2058C70.999 28.4851 68.071 29.6367 66.914 27.8161C66.428 27.0503 66.017 24.6295 66 22.4359C65.961 17.4038 64.3 14.3657 63.392 17.667C63.058 18.8824 61.892 20.1596 60.802 20.5046C59.114 21.039 58.87 21.8566 59.16 26.0224C59.489 30.7504 59.411 30.912 56.809 30.912C53.529 30.911 52.503 32.25 54.511 33.9111C55.33 34.5891 56 35.986 56 37.015C56 38.045 56.477 38.8875 57.059 38.8875C57.641 38.8875 57.84 39.3362 57.5 39.8846C57.16 40.4329 55.42 40.8816 53.632 40.8816C51.845 40.8816 49.509 41.5177 48.442 42.2964C46.572 43.6594 46.597 43.7342 49.157 44.3743C50.617 44.7403 52.036 45.8978 52.312 46.9487C52.598 48.0405 53.684 48.8581 54.847 48.8581C57.605 48.8581 58.487 50.5641 56.117 51.3139C54.817 51.7257 54.369 52.5413 54.716 53.8664C55.06 55.1765 54.618 56.0101 53.363 56.4149C49.392 57.6951 47 59.2196 47 60.4699C47 62.2766 51.646 65.1472 53.111 64.2448C53.793 63.8241 54.048 63.9267 53.703 64.4831C53.37 65.0205 50.16 66.9469 46.569 68.7645C40.965 71.6011 39.81 71.8783 38.414 70.7217C37.519 69.9819 35.826 68.8981 34.652 68.3148C33.478 67.7315 32.384 66.56 32.22 65.7115C31.849 63.7941 36.072 61.7651 38.899 62.5019C41.875 63.2777 41.595 61.0632 38.042 55.7139C36.327 53.1325 33.489 50.4963 31.292 49.4414C27.783 47.7584 27.66 47.5619 29.648 46.8141C32.365 45.7922 33.416 44.1291 32.32 42.5826C30.652 40.2265 31.413 37.4039 33.808 37.0659C35.68 36.8016 35.893 36.4706 34.936 35.321C34.286 34.5403 32.996 33.9022 32.069 33.9022C31.141 33.9022 29.509 33.2431 28.441 32.4385C26.549 31.0107 26.556 30.9738 28.75 30.9429C30.49 30.918 31 30.3317 31 28.3525C31 26.9457 30.534 24.9266 29.965 23.8657C29.251 22.5366 29.251 21.9374 29.965 21.9374C30.534 21.9374 31 21.4887 31 20.9403C31 20.392 30.325 19.9433 29.5 19.9433C28.021 19.9433 27.388 15.5652 27.896 8.85094C28.016 7.2686 27.483 5.99934 26.547 5.64139C25.696 5.31635 25 3.91447 25 2.52556C25 0.0777725 24.031 -0.693955 22.667 0.667037Z" fill="black"/>
</svg>
